<?xml version="1.0" standalone="no"?>
<!DOCTYPE svg PUBLIC "-//W3C//DTD SVG 20010904//EN"
 "http://www.w3.org/TR/2001/REC-SVG-20010904/DTD/svg10.dtd">
<svg version="1.0" xmlns="http://www.w3.org/2000/svg"
 width="225.000000pt" height="225.000000pt" viewBox="0 0 225.000000 225.000000"
 preserveAspectRatio="xMidYMid meet">

<g transform="translate(0.000000,225.000000) scale(0.100000,-0.100000)"
fill="#000000" stroke="none">
<path d="M0 1125 l0 -1125 1125 0 1125 0 0 1125 0 1125 -1125 0 -1125 0 0
-1125z m1168 773 l3 -138 -46 0 -45 0 0 141 0 140 43 -3 42 -3 3 -137z m208
106 c13 -3 24 -8 24 -10 0 -4 -57 -217 -66 -247 -5 -15 -12 -17 -37 -12 -18 4
-36 10 -40 15 -4 4 6 61 23 126 40 154 38 147 56 140 9 -3 27 -9 40 -12z
m-436 -36 c7 -24 22 -81 35 -128 13 -47 21 -88 17 -92 -4 -3 -23 -9 -42 -13
l-35 -6 -33 128 c-18 70 -32 131 -32 135 0 8 25 15 57 17 18 1 24 -7 33 -41z
m665 -68 c5 -8 -98 -210 -122 -240 -7 -8 -74 33 -71 44 2 6 32 61 67 123 l64
112 28 -15 c15 -7 31 -19 34 -24z m-832 -85 c37 -63 67 -116 67 -119 0 -2 -16
-13 -35 -24 l-34 -21 -72 122 c-40 66 -67 123 -62 124 6 2 19 10 29 18 10 8
24 15 29 15 6 0 41 -52 78 -115z m-98 -245 l-30 -30 -100 100 -99 100 29 30
29 31 101 -101 100 -100 -30 -30z m1098 202 l27 -28 -100 -99 -99 -99 -26 24
c-14 13 -25 28 -25 34 0 11 180 196 190 196 4 0 18 -13 33 -28z m-1314 -217
c142 -80 137 -75 117 -113 -9 -18 -21 -32 -27 -32 -5 0 -61 30 -125 66 -110
63 -114 67 -101 88 7 11 17 27 21 34 4 6 10 12 13 12 3 0 49 -25 102 -55z
m-60 -194 c62 -17 115 -32 117 -34 8 -8 -9 -69 -21 -73 -10 -4 -238 51 -256
62 -4 2 -2 22 3 44 8 30 15 39 27 35 9 -2 67 -18 130 -34z m91 -241 l0 -40
-140 0 -140 0 0 40 0 40 140 0 140 0 0 -40z m25 -170 l6 -35 -119 -33 c-66
-17 -127 -32 -134 -32 -8 0 -20 16 -26 36 -9 30 -8 36 6 42 49 19 248 68 254
63 3 -3 9 -22 13 -41z m-35 -252 c-66 -37 -121 -68 -123 -68 -5 0 -40 70 -36
74 2 2 56 33 119 70 l115 66 22 -37 22 -37 -119 -68z m203 -26 l27 -28 -100
-99 -100 -99 -30 29 -30 29 97 98 c54 54 100 98 103 98 4 0 18 -13 33 -28z
m1027 -67 l94 -95 -29 -30 -29 -30 -98 97 -98 97 27 28 c15 15 29 28 33 28 3
0 48 -43 100 -95z m-902 -31 c38 -19 39 -25 8 -78 -12 -23 -42 -74 -65 -114
l-42 -72 -29 15 c-16 8 -31 19 -35 25 -5 7 120 240 129 240 2 0 17 -7 34 -16z
m746 -99 c37 -63 65 -119 62 -124 -7 -10 -65 -35 -70 -30 -19 20 -135 234
-128 237 5 1 18 9 28 17 10 8 24 15 29 15 6 0 41 -52 79 -115z m-591 35 c7 0
18 -4 26 -9 12 -7 8 -30 -19 -137 -19 -71 -34 -130 -36 -132 -1 -2 -21 2 -44
8 -29 8 -40 15 -36 25 3 8 20 69 37 135 25 92 36 120 46 115 8 -3 20 -5 26 -5z
m408 -123 c38 -144 40 -135 -22 -150 -23 -6 -27 -3 -32 21 -4 15 -20 75 -36
134 l-29 108 31 9 c18 5 37 10 42 10 6 1 26 -59 46 -132z m-201 -37 l0 -140
-40 0 -40 0 0 140 0 140 40 0 40 0 0 -140z"/>
</g>
</svg>
